<?xml version="1.0" encoding="utf-8"?>
<!-- Generator: Adobe Illustrator 26.4.1, SVG Export Plug-In . SVG Version: 6.00 Build 0)  -->
<svg version="1.1" id="Capa_1" xmlns="http://www.w3.org/2000/svg" xmlns:xlink="http://www.w3.org/1999/xlink" x="0px" y="0px"
	 viewBox="0 0 1417.32 1417.32" style="enable-background:new 0 0 1417.32 1417.32;" xml:space="preserve">
<style type="text/css">
	.st0{fill:#1D83D3;}
	.st1{fill:#2196F2;}
</style>
<g>
	<path class="st0" d="M506.99,1005.24c0.1,12.16,0.19,24.33,0.29,36.49c-2.9,4.7-1.5,9.89-1.51,14.85
		c-0.1,60.31-0.07,120.63-0.07,180.94c-117.85,0.11-235.77,2.49-353.54-0.57c-66.22-1.73-127.25-52.09-144.47-127.49
		c-0.59-2.58,0.18-5.66-3-7.13c0-264.81,0-529.61,0-794.42c4.89-4.8,4.52-11.48,6.26-17.42c19.78-67.52,84.03-115.39,154.9-115.44
		c21.66-0.02,43.33-0.28,64.98,0.15c7.28,0.15,9.13-2.16,9.39-9.34c1.23-34.39,18.43-50.57,53.26-50.87
		c15.21-0.13,30.43-0.39,45.62,0.13c7.45,0.26,11.25-1.81,14.12-9.24C378.51,40.52,437.16-2.22,500.7-2.2
		c75.16,0.01,132.39,39.12,159.44,109.65c2.69,7.01,5.98,9.1,12.95,8.89c14.28-0.42,28.66,0.91,42.84-0.32
		c37.61-3.26,60.58,19.83,56.02,58.18c-0.15,29.49-0.11,58.98-0.55,88.47c-0.18,12.38,1.56,24.83-1.41,37.14
		c-11.92,49.33-54.21,82.74-105.17,82.81c-48.39,0.07-96.79,0.3-145.18-0.21c-10.73-0.11-14.32,2.7-14.16,13.89
		c0.65,44.24,0.32,88.49,0.35,132.73c-43.33,0.21-86.66,0.51-129.99,0.6c-49.8,0.11-99.61-0.07-149.41,0.06
		c-25.44,0.07-44.49,19.46-44.27,44.62c0.21,24.22,19.43,43.24,44.27,43.27c87.62,0.1,175.24,0.03,262.85,0.07
		c5.52,0,11.03,0.39,16.55,0.6c-0.01,33.97-0.01,67.95-0.02,101.92c-67.3,0.21-134.6,0.43-201.9,0.61
		c-25.36,0.07-50.72-0.26-76.08,0.11c-21.53,0.31-38.57,13.32-44.4,32.96c-5.11,17.22,1.79,35.8,17.16,47.51
		c9.86,7.51,21.13,8.15,32.77,8.15c85.3-0.05,170.6-0.05,255.89,0.03c5.46,0,11.08-1.09,16.37,1.36
		c0.02,33.95,0.04,67.9,0.06,101.85c-5.49,0.32-10.99,0.92-16.48,0.92c-87.1,0.07-174.21,0.19-261.31-0.04
		c-19.78-0.05-33.72,9-41.92,26.03c-7.89,16.4-4.94,32.48,6.8,46.34c10.21,12.05,23.93,16.2,39.45,16.18
		c85.72-0.12,171.44-0.07,257.16-0.01c5.49,0,10.97,0.63,16.46,0.96C505.92,1004.01,506.31,1004.71,506.99,1005.24z"/>
	<path class="st0" d="M979.02,1415.12c-15.2-6.46-31.78-6.67-47.62-10.38c-155.09-36.27-275.66-164.94-301.32-322.44
		c-33.42-205.13,93.32-400.76,293.54-452.26c32.54-8.37,65.73-13.92,99.66-11.64c0.03,104.1,0.05,208.2,0.08,312.31
		c-5.09-0.76-7.3-5.26-10.46-8.36c-16.75-16.46-33.08-33.34-49.96-49.67c-14.23-13.77-31.15-21.21-51.32-17.83
		c-23.86,4-40.26,17.91-47.85,40.65c-7.73,23.13-0.87,43.56,15.71,60.67c17.3,17.86,34.85,35.48,52.8,52.69
		c6.13,5.87,6.2,9.43,0.03,15.34c-18.28,17.52-36.29,35.35-53.74,53.69c-16.03,16.84-22.42,37.08-14.8,59.64
		c7.46,22.1,23.13,35.99,46.51,40.35c21.36,3.98,38.54-4.16,53.73-18.37c20.06-18.76,37.43-40.31,59.35-57.14
		c-0.02,104.26-0.03,208.51-0.05,312.77C1008.54,1415.12,993.78,1415.12,979.02,1415.12z"/>
	<path class="st1" d="M1023.35,930.7c-0.03-104.1-0.05-208.2-0.08-312.31c127.31,1.14,232.31,50.92,311.2,150.06
		c184.23,231.52,62.89,572.36-225.67,637.66c-15.5,3.51-31.7,3.24-46.74,9c-12.92,0-25.83,0-38.75,0
		c0.02-104.26,0.03-208.51,0.05-312.77c21.49,16.67,38.9,37.58,58.39,56.33c26.8,25.79,61.9,27.21,86.33,3.01
		c24.43-24.2,23.61-59.81-2.27-86.26c-16.76-17.13-33.57-34.24-50.95-50.73c-6.66-6.32-6.56-10.1,0.03-16.38
		c18.01-17.17,35.66-34.75,52.84-52.75c25.24-26.44,23.83-63.93-2.71-87.07c-23.73-20.7-56.89-19-81.28,3.96
		C1063.37,891.63,1045.58,913.46,1023.35,930.7z"/>
	<path class="st1" d="M505.82,529.04c-0.03-44.25,0.3-88.5-0.35-132.73c-0.16-11.18,3.43-14,14.16-13.89
		c48.39,0.51,96.79,0.28,145.18,0.21c50.97-0.08,93.26-33.48,105.17-82.81c2.97-12.31,1.22-24.76,1.41-37.14
		c0.44-29.49,0.4-58.98,0.55-88.47c23.94,0.29,47.88,0.72,71.81,0.83c93.04,0.44,164.4,71.37,165.03,164.57
		c0.34,49.3-0.32,98.61,0.36,147.91c0.16,11.51-4.11,13.67-14.3,14.04c-56.17,2.03-110.23,14.37-162.33,35.25
		c-8.08,3.24-14.76,5.38-22.61-1.29c-6.78-5.77-15.87-6.26-24.87-6.25C691.97,529.32,598.89,529.14,505.82,529.04z"/>
	<path class="st1" d="M505.8,720.18c0-33.97,0.01-67.95,0.02-101.92c61.65,0,123.3,0,187.42,0c-25.28,22.99-50.86,43.58-67.9,70.52
		c-17.4,27.5-39.32,35.87-69.82,32.08C539.18,718.81,522.39,720.29,505.8,720.18z"/>
	<path class="st1" d="M505.71,1237.52c0-60.31-0.03-120.63,0.07-180.94c0.01-4.96-1.39-10.15,1.51-14.85
		c2.05,33.58,6.6,66.76,14.66,99.49c8.04,32.64,19.61,64.01,33.89,96.3C538.23,1237.52,521.97,1237.52,505.71,1237.52z"/>
	<path class="st1" d="M505.68,912.74c-0.02-33.95-0.04-67.9-0.06-101.85c11.9-0.22,23.81-0.21,35.7-0.74
		c7.22-0.32,7.53,2.68,5.18,8.2c-12.05,28.3-21.37,57.48-27.37,87.66C517.47,914.41,512.07,914.31,505.68,912.74z"/>
	<path class="st1" d="M506.99,1005.24c-0.69-0.54-1.07-1.24-1.16-2.1C507.59,1003.09,507.7,1003.94,506.99,1005.24z"/>
</g>
</svg>
