<?xml version="1.0" encoding="utf-8"?>
<!-- Generator: Adobe Illustrator 26.4.1, SVG Export Plug-In . SVG Version: 6.00 Build 0)  -->
<svg version="1.1" id="Capa_1" xmlns="http://www.w3.org/2000/svg" xmlns:xlink="http://www.w3.org/1999/xlink" x="0px" y="0px"
	 viewBox="0 0 1417.32 1417.32" style="enable-background:new 0 0 1417.32 1417.32;" xml:space="preserve">
<style type="text/css">
	.st0{fill:#2196F2;}
</style>
<path class="st0" d="M761.76,1417.32c-35.99,0-71.97,0-107.96,0c-12.91-5.19-26.77-4.33-40.18-6.27
	c-155.43-22.5-289.89-88.05-401.59-198.4C100.38,1102.35,32.47,969.14,8.27,813.78c-2.58-16.58-1.82-33.71-7.77-49.75
	c0-37.83,0-75.66,0-113.5c3.87-1.81,2.64-5.49,2.94-8.47c12.91-128.45,55.97-245.72,132.88-349.52
	C249.67,139.56,400.08,45.04,587.81,10.46C608.84,6.58,630.5,6.68,651.03,0c37.83,0,75.66,0,113.5,0c1.45,3.3,4.54,2.51,7.13,2.74
	c107.26,9.5,207.85,40.77,299.43,97.26c189.21,116.71,303.02,284.83,339.06,504.89c2.79,17.03,2.08,34.58,7.67,51.17
	c0,35.99,0,71.97,0,107.96c-5.25,12.9-4.36,26.76-6.28,40.17c-20.4,142.52-77.6,268.33-173.78,375.42
	c-113.69,126.59-255,203.47-423.48,229.89C796.8,1412.26,778.79,1411.54,761.76,1417.32z M650.49,516.27c-0.05,0-0.09,0-0.14,0
	c0,38.29,0,76.59,0,114.88c0,18.69-0.01,18.7-18.51,18.7c-76.12,0.01-152.25,0.17-228.37-0.1c-19.07-0.07-35.62,5.15-48.25,19.66
	c-16.01,18.39-19.58,39.76-10.27,61.97c9.82,23.42,28.5,35.88,54.16,35.96c77.51,0.24,155.02,0.12,232.52,0.14
	c18.71,0.01,18.72,0.01,18.72,18.49c0.01,76.59,0.1,153.17-0.03,229.76c-0.05,26.76,11.44,46.42,35.88,57.14
	c39.22,17.21,81.33-11.32,81.61-55.56c0.49-77.04,0.15-154.09,0.17-231.14c0-18.68,0.01-18.69,18.52-18.69
	c76.59-0.01,153.17,0.1,229.76-0.08c27.68-0.06,48.69-13.84,57.83-37.03c15.48-39.3-12.68-80.13-56.3-80.37
	c-78.43-0.44-156.86-0.36-235.29,0.09c-11.42,0.07-14.84-3.04-14.77-14.64c0.49-76.12,0.27-152.25,0.23-228.37
	c0-8.28,0.28-16.59-2.1-24.71c-8.35-28.43-34.59-45.46-64.9-42.02c-27.52,3.12-49.76,26.74-50.27,55.5
	C649.95,435.99,650.49,476.13,650.49,516.27z"/>
</svg>
