<?xml version="1.0" encoding="utf-8"?>
<!-- Generator: Adobe Illustrator 26.4.1, SVG Export Plug-In . SVG Version: 6.00 Build 0)  -->
<svg version="1.1" id="Capa_1" xmlns="http://www.w3.org/2000/svg" xmlns:xlink="http://www.w3.org/1999/xlink" x="0px" y="0px"
	 viewBox="0 0 1417.32 1417.32" style="enable-background:new 0 0 1417.32 1417.32;" xml:space="preserve">
<style type="text/css">
	.st0{fill:#617D8B;}
	.st1{fill:#42A5F4;}
	.st2{fill:#FEFEFE;}
</style>
<path class="st0" d="M0.17,385.87c4.85-3.36,3.89-9.08,5.03-13.68c19.54-78.34,89.31-134.92,170.1-135.25
	c157.28-0.64,314.57-0.3,471.86-0.1c35.47,0.05,61.56,25.79,61.56,59.46c0,33.53-26.28,58.99-61.8,59.03
	c-154.06,0.14-308.12,0.05-462.17,0.07c-42.86,0-66.11,22.96-66.12,65.55c-0.04,271.67-0.04,543.35,0,815.02
	c0.01,42.08,23,65.38,64.78,65.39c271.68,0.07,543.35,0.07,815.03,0c41.29-0.01,64.55-23.94,64.56-65.85
	c0.02-154.78-0.1-309.56,0.08-464.34c0.05-44.16,41.38-72.56,81.29-56.43c23.94,9.67,37.05,30.97,37.06,60.85
	c0.06,120.59,0.25,241.18-0.1,361.77c-0.12,41.09,3.25,82.36-1.72,123.23c-9.41,77.47-53.12,127.45-126.29,152.52
	c-3.26,1.12-7.65,0.04-9.69,4.14c-302.62,0-605.24,0-907.85,0c-1.4-3.81-5.26-3.39-8.08-4.32c-66.2-21.75-107.2-66.77-124.09-134.23
	c-0.73-2.92,0.36-6.72-3.46-8.4C0.17,975.49,0.17,680.68,0.17,385.87z"/>
<path class="st1" d="M1417.31,172.38c-7.87,20.4-12.34,42.33-26.29,60.01c-28.11,35.61-62.88,64.81-93.89,97.64
	c-5.94,6.29-8.81,0.36-12.06-2.88c-28.09-27.99-56.08-56.09-84.1-84.15c-35.84-35.9-71.38-72.11-107.73-107.48
	c-8.59-8.36-7.65-12.66,0.42-20.37c23.34-22.29,45.69-45.6,68.64-68.31c42.19-41.76,92.52-56.86,149.43-39.87
	c55.7,16.63,89.69,55.64,102.73,112.58c0.5,2.19,0.21,4.66,2.87,5.71C1417.31,140.96,1417.31,156.67,1417.31,172.38z"/>
<path class="st2" d="M0.17,1270.3c3.82,1.68,2.73,5.48,3.46,8.4c16.89,67.46,57.89,112.48,124.09,134.23
	c2.82,0.93,6.67,0.5,8.08,4.32c-42.44,0-84.88-0.19-127.32,0.19c-6.93,0.06-8.54-1.57-8.49-8.5
	C0.35,1362.72,0.17,1316.51,0.17,1270.3z"/>
<path class="st1" d="M534.68,915.58c-21.96-0.05-34.45-16.78-30.06-39.17c5.13-26.23,10.59-52.39,15.87-78.59
	c8.19-40.65,16.51-81.28,24.42-121.99c1.75-9.01,5.54-16.28,11.99-22.74c151.99-152.11,303.94-304.24,455.65-456.62
	c6.9-6.93,10.45-6.75,17.21,0.08c63.65,64.25,127.58,128.22,191.73,191.97c6.58,6.54,7.57,10.11,0.41,17.26
	c-152.14,151.95-304.03,304.16-455.88,456.4c-6.44,6.46-13.7,10.36-22.66,12.15c-67.23,13.4-134.4,27.05-201.6,40.56
	C539.06,915.43,536.26,915.43,534.68,915.58z"/>
</svg>
